<svg width="1080" height="1080" viewBox="0 0 1080 1080" fill="none" xmlns="http://www.w3.org/2000/svg">
<rect width="1080" height="1080" fill="white"/>
<path d="M979.602 151H69.6016C66.8401 151 64.6016 153.239 64.6016 156V1001H984.602V156C984.602 153.239 982.363 151 979.602 151Z" fill="#54ABE5"/>
<path d="M553.223 358.93C664.026 358.93 753.993 448.896 753.993 559.699V912.37H352.453V559.699C352.453 448.896 442.419 358.93 553.223 358.93Z" fill="#255F85" stroke="black"/>
<path d="M552.872 359C663.952 359 754.141 449.19 754.141 560.27V913.44H351.602V560.27C351.602 449.19 441.792 359 552.872 359Z" fill="#3F7AA1"/>
<path d="M558.602 80L558.602 440" stroke="black" stroke-width="2" stroke-linecap="round" stroke-linejoin="round"/>
<path d="M558.272 436.82C558.272 436.82 450.062 449.55 450.062 473.55H666.483C666.483 449.55 558.272 436.82 558.272 436.82Z" fill="#FFC857"/>
<path d="M666.483 473.55C666.483 475.95 618.032 477.89 558.272 477.89C498.512 477.89 450.062 475.95 450.062 473.55C450.062 471.15 498.512 469.21 558.272 469.21C618.032 469.21 666.483 471.15 666.483 473.55Z" fill="#EFDFD0"/>
<path d="M1076.49 245.79H869.203V453.08H1076.49V245.79Z" fill="black"/>
<path d="M1069 253.29H876.703V445.59H1069V253.29Z" fill="white"/>
<path d="M1028.57 293.72H917.133V405.16H1028.57V293.72Z" fill="#F2E8DE"/>
<path d="M1028.57 293.73H917.133V405.17H1028.57V293.73Z" fill="#F2E8DE"/>
<path d="M974.843 324.64C961.223 333.18 943.393 332.66 928.403 326.86C924.593 325.38 920.863 323.57 917.133 321.82V293.73H991.303C991.953 305.62 985.213 318.14 974.843 324.64Z" fill="#481D24"/>
<path d="M999.674 319.84C996.094 317.99 992.064 317.31 988.074 316.83C969.824 314.62 948.694 321.29 941.624 340.01C938.644 347.95 937.804 357.49 940.724 365.45C941.714 368.13 945.924 375.24 954.744 378.76C964.434 382.64 973.894 382.3 984.584 380.19C992.184 378.68 999.504 375.02 1004.48 369.1C1007.64 365.36 1009.8 360.84 1011.3 356.17C1012.89 351.23 1014.01 346.05 1014.01 340.85C1014.01 327.74 1003.35 321.73 999.674 319.84ZM1007.85 348.46C1007.5 357.44 1002.63 366.33 994.764 370.66C987.454 374.67 978.644 374.68 970.334 374C953.254 372.61 950.144 363.27 949.314 360.57C947.454 354.47 946.874 347.5 950.074 341.99C951.534 339.45 953.724 337.4 956.004 335.57C966.554 327.13 980.854 326.18 993.694 329.55C998.214 330.74 1002.59 333.18 1005.14 337.11C1007.31 340.42 1008 344.51 1007.86 348.46H1007.85Z" fill="#C5283D"/>
<path d="M975.602 396.86C975.572 398.17 977.042 400.77 985.202 395.8C996.372 388.99 1006.95 382.62 1018.25 375.69C1020.28 374.45 1024.43 371.62 1021.5 369.99C1015.06 367.34 984.012 358.22 981.942 357.74C978.812 357.01 979.082 359.65 978.722 363.08C978.332 366.8 975.622 396.17 975.602 396.87V396.86Z" fill="#E9724C"/>
<path d="M648.723 830.76L694.033 696.58C700.793 676.57 719.563 663.09 740.683 663.09H897.733C915.183 663.09 927.483 680.22 921.893 696.75L876.643 830.76H648.723Z" fill="#FFC857"/>
<path d="M703.895 764.71H615.465C599.315 764.71 587.345 779.7 590.915 795.45L608.475 872.85C611.225 884.95 621.975 893.54 634.385 893.54H703.895V764.7V764.71Z" fill="#FFC857"/>
<path d="M897.762 764.71H809.332C793.182 764.71 781.212 779.7 784.782 795.45L807.032 893.55H876.312C888.152 893.55 897.752 883.95 897.752 872.11V764.72L897.762 764.71Z" fill="#FFC857"/>
<path d="M824.934 808.08H647.094V893.55H824.934V808.08Z" fill="#FFC857"/>
<path d="M706.962 805.17L702.102 783.73C699.582 772.61 689.692 764.71 678.292 764.71H643.652" stroke="black" stroke-width="1.42" stroke-linecap="round" stroke-linejoin="round"/>
<path d="M766.483 852.4L764.363 843.06L753.563 795.45C749.993 779.7 761.963 764.71 778.113 764.71H872.463" stroke="black" stroke-width="1.42" stroke-linecap="round" stroke-linejoin="round"/>
<path d="M764.583 844.01H668.622C660.162 844.01 653.312 850.86 653.312 859.32V869.05" stroke="black" stroke-width="1.42" stroke-linecap="round" stroke-linejoin="round"/>
<path d="M872.461 694.32L875.271 686.46" stroke="black" stroke-width="1.42" stroke-linecap="round" stroke-linejoin="round"/>
<path d="M847.293 764.71L869.883 701.53" stroke="black" stroke-width="1.42" stroke-linecap="round" stroke-linejoin="round"/>
<path d="M674.343 893.55L659.413 968.03H647.633L657.783 893.55H674.343Z" fill="#FE4B63"/>
<path d="M875.262 968.03H864.233L849.312 893.55H865.113L875.262 968.03Z" fill="#FE4B63"/>
<path d="M772.614 968.03H761.594L758.854 954.34L751.304 916.7L746.664 893.55H762.474L765.934 918.99L772.614 968.03Z" fill="black"/>
<path d="M785.124 893.55L780.024 918.99L772.944 954.34L770.204 968.03H758.414L765.394 916.7L768.554 893.55H785.124Z" fill="#FE4B63"/>
<path d="M872.804 663.1C856.164 663.1 841.304 673.58 835.734 689.25L819.454 735.06H748.094L764.374 689.25C769.944 673.57 784.784 663.1 801.434 663.1H872.804Z" fill="#F87A8B"/>
<path d="M766.211 731.58L781.241 689.26C786.811 673.58 801.651 663.11 818.301 663.11" stroke="black" stroke-width="1.42" stroke-linecap="round" stroke-linejoin="round"/>
<path d="M745.05 751.01H742.43L748.09 735.07H750.71L745.05 751.01Z" fill="#F675A8"/>
<path d="M754.87 751.01H752.25L757.91 735.07H760.53L754.87 751.01Z" fill="#F675A8"/>
<path d="M764.69 751.01H762.07L767.73 735.07H770.35L764.69 751.01Z" fill="#F675A8"/>
<path d="M774.511 751.01H771.891L777.551 735.07H780.171L774.511 751.01Z" fill="#F675A8"/>
<path d="M784.331 751.01H781.711L787.371 735.07H789.991L784.331 751.01Z" fill="#F675A8"/>
<path d="M794.151 751.01H791.531L797.191 735.07H799.811L794.151 751.01Z" fill="#F675A8"/>
<path d="M803.972 751.01H801.352L807.011 735.07H809.631L803.972 751.01Z" fill="#F675A8"/>
<path d="M813.792 751.01H811.172L816.832 735.07H819.452L813.792 751.01Z" fill="#F675A8"/>
<path d="M760.531 723.16H810.441" stroke="black" stroke-width="1.42" stroke-linecap="round" stroke-linejoin="round"/>
<path d="M978.051 745.11L932.171 776.34V766.17L886.781 795.64C886.781 795.64 889.711 918.4 911.121 968.03H957.941C982.981 889.19 978.051 745.1 978.051 745.1V745.11Z" fill="white"/>
<path d="M938.904 781.09C913.834 795.56 890.494 802.07 886.784 795.63C883.064 789.19 900.374 772.23 925.444 757.76C950.514 743.29 973.854 736.78 977.564 743.22C981.284 749.66 963.974 766.62 938.904 781.09Z" fill="black"/>
<path d="M840.953 433.55C840.953 433.55 932.173 516.84 932.173 769.43" stroke="black" stroke-width="1.16" stroke-linecap="round" stroke-linejoin="round"/>
<path d="M887.802 498.33C887.802 498.33 870.242 437.77 904.672 440.08C916.482 440.87 919.822 455.23 913.112 468.48C904.972 484.54 887.802 498.33 887.802 498.33Z" fill="#28764F"/>
<path d="M888.16 510.5C888.16 510.5 884.81 487.99 898.69 454.78" stroke="black" stroke-width="1.16" stroke-linecap="round" stroke-linejoin="round"/>
<path d="M864.122 471.53C864.122 471.53 828.892 419.24 808.592 447.15C801.632 456.72 810.512 468.49 824.982 471.83C842.522 475.87 864.122 471.53 864.122 471.53Z" fill="#28764F"/>
<path d="M873.231 479.6C873.231 479.6 858.101 462.6 823.711 451.97" stroke="black" stroke-width="1.16" stroke-linecap="round" stroke-linejoin="round"/>
<path d="M888.763 528.991C888.763 528.991 883.193 524.791 876.083 520.421C863.873 504.621 834.693 490.541 818.253 497.271C804.653 502.841 814.163 524.791 838.603 527.911C852.633 529.711 859.903 528.151 869.283 527.261C881.733 526.081 888.763 528.981 888.763 528.981V528.991Z" fill="#28764F"/>
<path d="M898.521 537.58C898.521 537.58 879.731 516.47 837.031 503.27" stroke="black" stroke-width="1.16" stroke-linecap="round" stroke-linejoin="round"/>
<path d="M923.252 523.971C923.252 523.971 936.612 521.651 949.452 537.531C960.232 550.861 964.472 574.551 981.842 569.921C1000.05 565.071 991.592 524.371 966.282 517.841C959.482 516.091 945.412 515.751 939.242 519.391C930.982 518.211 923.242 523.971 923.242 523.971H923.252Z" fill="#28764F"/>
<path d="M902.984 551.12C902.984 551.12 913.294 519.39 938.704 519.38C968.644 519.38 976.084 549.77 976.084 549.77" stroke="black" stroke-width="1.16" stroke-linecap="round" stroke-linejoin="round"/>
<path d="M877.813 569.9C877.813 569.9 863.983 573.46 858.743 588.92C830.733 609.57 838.693 654.83 861.533 653.62C886.553 652.29 882.433 618.64 875.553 597.96C868.083 575.52 877.813 569.91 877.813 569.91V569.9Z" fill="#28764F"/>
<path d="M910.392 577.17C910.392 577.17 879.542 554.76 861.762 583.07C847.512 605.75 858.582 642.04 858.582 642.04" stroke="black" stroke-width="1.16" stroke-linecap="round" stroke-linejoin="round"/>
<path d="M901.7 650.38C901.7 650.38 891.05 652.32 882.28 670.78C848.62 699.89 861.03 748.87 885.17 750.19C898.03 750.89 904.01 738.17 901.1 720.61C898.88 707.26 892.34 692.68 891.71 683.23C890.8 669.62 893.02 663.81 897.61 659.32C904.63 652.44 901.71 650.37 901.71 650.37L901.7 650.38Z" fill="#28764F"/>
<path d="M924.715 651.511C924.715 651.511 902.305 638.611 886.305 663.991C867.795 693.351 884.165 738.621 884.165 738.621" stroke="black" stroke-width="1.16" stroke-linecap="round" stroke-linejoin="round"/>
<path d="M929.853 620.12C929.853 620.12 926.273 623.08 932.173 627.34C936.133 630.2 941.063 635.05 943.333 649.66C945.333 662.51 948.863 687.04 967.283 684.41C983.533 682.09 987.423 652.88 975.453 637.28C963.473 621.67 940.423 622.26 940.423 622.26C940.423 622.26 936.253 619.25 929.853 620.12Z" fill="#28764F"/>
<path d="M921.891 632.51C921.891 632.51 924.041 619.889 931.631 619.859C943.471 619.809 961.581 635.33 965.741 668.35" stroke="black" stroke-width="1.16" stroke-linecap="round" stroke-linejoin="round"/>
<path d="M436.691 862.85L413.461 968.03" stroke="black" stroke-width="2" stroke-linecap="round" stroke-linejoin="round"/>
<path d="M546.555 862.85L569.785 968.03" stroke="black" stroke-width="2" stroke-linecap="round" stroke-linejoin="round"/>
<path d="M423.922 900.63H559.322" stroke="black" stroke-width="2" stroke-linecap="round" stroke-linejoin="round"/>
<path d="M570.014 850.29H413.234V862.85H570.014V850.29Z" fill="white"/>
<path d="M557.505 845.1H476.125V850.29H557.505V845.1Z" fill="#E32D45"/>
<path d="M465.451 850.29H447.321L443.691 820.24H469.071L465.451 850.29Z" fill="#F7344E"/>
<path d="M444.602 820.24C444.602 820.24 438.212 809.38 423.922 814.61C423.922 814.61 432.302 802.16 447.672 812.23C447.672 812.23 446.852 800.66 436.682 794.83C436.682 794.83 454.932 796.64 457.832 815.7C457.832 815.7 458.742 799.82 468.262 797.01C468.262 797.01 462.732 801.82 463.282 814.79C463.282 814.79 464.882 811.27 469.072 813.18C479.242 810.59 470.332 838.56 470.332 838.56C470.332 838.56 469.072 825.22 465.632 820.23H444.592L444.602 820.24Z" fill="white"/>
<path d="M537.164 772.36C528.514 772.36 521.504 779.37 521.504 788.02C521.504 779.37 514.494 772.36 505.844 772.36C514.494 772.36 521.504 765.35 521.504 756.7C521.504 765.35 528.514 772.36 537.164 772.36Z" fill="white"/>
<path d="M301.962 569.16H42.6016V911.55H301.962V569.16Z" fill="black"/>
<path d="M292.574 578.55H51.9844V902.17H292.574V578.55Z" fill="white"/>
<path opacity="0.5" d="M268.123 611.45H76.4531V869.26H268.123V611.45Z" fill="#FFCCB3"/>
<path d="M214.98 679.23C213.8 677.47 104.95 717.33 107.83 724.77C107.83 724.77 147.87 831.81 154.91 833.57C161.95 835.33 257.28 791.5 259.63 790.32C261.97 789.15 216.14 680.98 214.97 679.22L214.98 679.23ZM249.89 785.01C248.05 785.93 173.44 820.24 167.94 818.86C162.43 817.48 131.09 733.7 131.09 733.7C128.83 727.88 214.02 696.68 214.94 698.06C215.86 699.44 251.73 784.09 249.89 785.01Z" fill="#E9724C"/>
<path d="M168.433 744.52C151.893 762.39 125.143 770.53 101.793 763.66C93.7231 761.29 84.7431 757.01 76.4531 751.85V646.68C84.6831 642.6 94.0431 640.43 103.233 640C120.693 639.2 137.893 643.85 154.693 648.67C163.243 651.13 172.253 653.94 178.103 660.63C181.983 665.05 184.073 670.76 185.443 676.48C191.103 700.15 184.963 726.65 168.423 744.51L168.433 744.52Z" fill="#C5283D"/>
<path d="M255.782 869.27H237.752C233.922 845.84 221.932 827.35 219.132 823.65C211.322 813.36 199.922 805.83 187.392 802.71C174.862 799.6 161.262 800.88 149.532 806.32C143.522 809.1 137.832 813.12 134.572 818.89C132.042 823.35 131.152 828.54 130.532 833.64C129.092 845.45 128.942 857.42 130.052 869.28H111.622C111.072 861.61 113.242 849.21 115.302 842.66C120.192 827.03 130.362 812.96 144.162 804.02C165.662 790.12 195.072 789.42 217.052 802.56C239.962 816.24 252.882 842.62 255.792 869.28L255.782 869.27Z" fill="#255F85"/>
<path d="M230.084 794.03C216.734 800.03 199.234 807.72 186.164 812.96L189.704 821.32C204.504 815.13 221.394 807.67 234.864 801.62C233.004 798.74 231.314 796.04 230.084 794.03Z" fill="#F675A8"/>
<path d="M157.621 635.86C157.621 635.86 149.111 643.46 155.851 653.83C161.571 662.63 179.831 654.49 186.871 658.45C193.911 662.41 201.111 673.5 213.711 669.98C228.231 665.93 221.411 637.11 206.671 629.85C191.931 622.59 171.061 623.4 157.621 635.86Z" fill="#FFC857"/>
<path d="M993.68 968.03H1010.92" stroke="black" stroke-width="1.42" stroke-linecap="round" stroke-linejoin="round"/>
<path d="M401.582 968.03H982.432" stroke="black" stroke-width="2" stroke-linecap="round" stroke-linejoin="round"/>
<path d="M334.15 912.48H3" stroke="black" stroke-width="2" stroke-linecap="round" stroke-linejoin="round"/>
<circle cx="246.102" cy="307.5" r="27.5" fill="white"/>
<circle cx="774.602" cy="382" r="23" fill="black"/>
</svg>
