<svg width="1080" height="1080" viewBox="0 0 1080 1080" fill="none" xmlns="http://www.w3.org/2000/svg">
<g clip-path="url(#clip0_2134_225)">
<rect width="1080" height="1080" fill="white"/>
<path d="M1025.45 151H115.449C112.688 151 110.449 153.239 110.449 156V1001H1030.45V156C1030.45 153.239 1028.21 151 1025.45 151Z" fill="#255F85"/>
<path d="M553.07 358.93C663.874 358.93 753.841 448.896 753.841 559.699V912.37H352.301V559.699C352.301 448.896 442.267 358.93 553.07 358.93Z" fill="#255F85" stroke="black"/>
<g opacity="0.5" style="mix-blend-mode:multiply">
<path d="M552.719 359C663.799 359 753.989 449.19 753.989 560.27V913.44H351.449V560.27C351.449 449.19 441.639 359 552.719 359Z" fill="#255F85"/>
</g>
<path d="M558.449 80L558.449 440" stroke="black" stroke-width="2" stroke-linecap="round" stroke-linejoin="round"/>
<path d="M558.12 436.82C558.12 436.82 449.91 449.55 449.91 473.55H666.33C666.33 449.55 558.12 436.82 558.12 436.82Z" fill="#FFC857"/>
<path d="M666.33 473.55C666.33 475.95 617.88 477.89 558.12 477.89C498.36 477.89 449.91 475.95 449.91 473.55C449.91 471.15 498.36 469.21 558.12 469.21C617.88 469.21 666.33 471.15 666.33 473.55Z" fill="#EFDFD0"/>
<path d="M666.329 473.55C666.329 471.15 617.879 469.21 558.119 469.21C498.359 469.21 449.909 471.15 449.909 473.55L351.809 968.03H764.439L666.339 473.55H666.329Z" fill="#FFC857"/>
<path d="M1076.34 245.79H869.051V453.08H1076.34V245.79Z" fill="black"/>
<path d="M1068.85 253.29H876.551V445.59H1068.85V253.29Z" fill="white"/>
<path d="M1028.42 293.72H916.98V405.16H1028.42V293.72Z" fill="#F2E8DE"/>
<path d="M1028.42 293.73H916.98V405.17H1028.42V293.73Z" fill="#F2E8DE"/>
<path d="M974.691 324.64C961.071 333.18 943.24 332.66 928.25 326.86C924.44 325.38 920.71 323.57 916.98 321.82V293.73H991.151C991.801 305.62 985.061 318.14 974.691 324.64Z" fill="#481D24"/>
<path d="M999.522 319.84C995.942 317.99 991.912 317.31 987.922 316.83C969.672 314.62 948.542 321.29 941.472 340.01C938.492 347.95 937.652 357.49 940.572 365.45C941.562 368.13 945.772 375.24 954.592 378.76C964.282 382.64 973.742 382.3 984.432 380.19C992.032 378.68 999.352 375.02 1004.33 369.1C1007.49 365.36 1009.65 360.84 1011.15 356.17C1012.74 351.23 1013.86 346.05 1013.86 340.85C1013.86 327.74 1003.2 321.73 999.522 319.84ZM1007.7 348.46C1007.35 357.44 1002.48 366.33 994.612 370.66C987.302 374.67 978.492 374.68 970.182 374C953.102 372.61 949.992 363.27 949.162 360.57C947.302 354.47 946.722 347.5 949.922 341.99C951.382 339.45 953.572 337.4 955.852 335.57C966.402 327.13 980.702 326.18 993.542 329.55C998.062 330.74 1002.44 333.18 1004.99 337.11C1007.16 340.42 1007.85 344.51 1007.71 348.46H1007.7Z" fill="#C5283D"/>
<path d="M975.45 396.86C975.42 398.17 976.89 400.77 985.05 395.8C996.22 388.99 1006.8 382.62 1018.1 375.69C1020.13 374.45 1024.28 371.62 1021.35 369.99C1014.91 367.34 983.86 358.22 981.79 357.74C978.66 357.01 978.93 359.65 978.57 363.08C978.18 366.8 975.47 396.17 975.45 396.87V396.86Z" fill="#E9724C"/>
<path d="M648.57 830.76L693.88 696.58C700.64 676.57 719.41 663.09 740.53 663.09H897.58C915.03 663.09 927.33 680.22 921.74 696.75L876.49 830.76H648.57Z" fill="#FFC857"/>
<path d="M703.742 764.71H615.312C599.162 764.71 587.192 779.7 590.762 795.45L608.322 872.85C611.072 884.95 621.822 893.54 634.232 893.54H703.742V764.7V764.71Z" fill="#F5B71F"/>
<path d="M897.61 764.71H809.18C793.03 764.71 781.06 779.7 784.63 795.45L806.88 893.55H876.16C888 893.55 897.6 883.95 897.6 872.11V764.72L897.61 764.71Z" fill="#FFC857"/>
<path d="M824.781 808.08H646.941V893.55H824.781V808.08Z" fill="#FFC857"/>
<g opacity="0.43" style="mix-blend-mode:screen">
<path d="M749.65 893.54H634.23C621.82 893.54 611.06 884.95 608.32 872.84L590.77 795.44C587.2 779.69 599.17 764.69 615.32 764.69H670.88L693.89 696.56C696.51 688.78 700.94 682 706.63 676.63L749.66 893.53L749.65 893.54Z" fill="#F9CF40"/>
</g>
<path d="M706.81 805.17L701.95 783.73C699.43 772.61 689.54 764.71 678.14 764.71H643.5" stroke="black" stroke-width="1.42" stroke-linecap="round" stroke-linejoin="round"/>
<path d="M766.331 852.4L764.211 843.06L753.411 795.45C749.841 779.7 761.811 764.71 777.961 764.71H872.311" stroke="black" stroke-width="1.42" stroke-linecap="round" stroke-linejoin="round"/>
<path d="M764.43 844.01H668.47C660.01 844.01 653.16 850.86 653.16 859.32V869.05" stroke="black" stroke-width="1.42" stroke-linecap="round" stroke-linejoin="round"/>
<path d="M872.309 694.32L875.119 686.46" stroke="black" stroke-width="1.42" stroke-linecap="round" stroke-linejoin="round"/>
<path d="M847.141 764.71L869.731 701.53" stroke="black" stroke-width="1.42" stroke-linecap="round" stroke-linejoin="round"/>
<path d="M674.191 893.55L659.26 968.03H647.48L657.63 893.55H674.191Z" fill="#C5283D"/>
<path d="M875.11 968.03H864.08L849.16 893.55H864.96L875.11 968.03Z" fill="#C5283D"/>
<path d="M772.462 968.03H761.442L758.702 954.34L751.152 916.7L746.512 893.55H762.322L765.782 918.99L772.462 968.03Z" fill="black"/>
<path d="M784.972 893.55L779.872 918.99L772.792 954.34L770.052 968.03H758.262L765.242 916.7L768.402 893.55H784.972Z" fill="#C5283D"/>
<path d="M872.651 663.1C856.011 663.1 841.151 673.58 835.581 689.25L819.301 735.06H747.941L764.221 689.25C769.791 673.57 784.631 663.1 801.281 663.1H872.651Z" fill="#C5283D"/>
<path d="M766.059 731.58L781.089 689.26C786.659 673.58 801.499 663.11 818.149 663.11" stroke="black" stroke-width="1.42" stroke-linecap="round" stroke-linejoin="round"/>
<path d="M744.897 751.01H742.277L747.937 735.07H750.557L744.897 751.01Z" fill="#F675A8"/>
<path d="M754.718 751.01H752.098L757.758 735.07H760.378L754.718 751.01Z" fill="#F675A8"/>
<path d="M764.538 751.01H761.918L767.578 735.07H770.198L764.538 751.01Z" fill="#F675A8"/>
<path d="M774.358 751.01H771.738L777.398 735.07H780.018L774.358 751.01Z" fill="#F675A8"/>
<path d="M784.179 751.01H781.559L787.219 735.07H789.839L784.179 751.01Z" fill="#F675A8"/>
<path d="M793.999 751.01H791.379L797.039 735.07H799.659L793.999 751.01Z" fill="#F675A8"/>
<path d="M803.819 751.01H801.199L806.859 735.07H809.479L803.819 751.01Z" fill="#F675A8"/>
<path d="M813.64 751.01H811.02L816.68 735.07H819.3L813.64 751.01Z" fill="#F675A8"/>
<path d="M760.379 723.16H810.289" stroke="black" stroke-width="1.42" stroke-linecap="round" stroke-linejoin="round"/>
<path d="M977.899 745.11L932.019 776.34V766.17L886.629 795.64C886.629 795.64 889.559 918.4 910.969 968.03H957.789C982.829 889.19 977.899 745.1 977.899 745.1V745.11Z" fill="white"/>
<path d="M938.752 781.09C913.682 795.56 890.342 802.07 886.632 795.63C882.912 789.19 900.222 772.23 925.292 757.76C950.362 743.29 973.702 736.78 977.412 743.22C981.132 749.66 963.822 766.62 938.752 781.09Z" fill="black"/>
<path d="M840.801 433.55C840.801 433.55 932.021 516.84 932.021 769.43" stroke="black" stroke-width="1.16" stroke-linecap="round" stroke-linejoin="round"/>
<path d="M887.649 498.33C887.649 498.33 870.089 437.77 904.519 440.08C916.329 440.87 919.669 455.23 912.959 468.48C904.819 484.54 887.649 498.33 887.649 498.33Z" fill="#E9724C"/>
<path d="M888.007 510.5C888.007 510.5 884.657 487.99 898.537 454.78" stroke="black" stroke-width="1.16" stroke-linecap="round" stroke-linejoin="round"/>
<path d="M863.969 471.53C863.969 471.53 828.739 419.24 808.439 447.15C801.479 456.72 810.359 468.49 824.829 471.83C842.369 475.87 863.969 471.53 863.969 471.53Z" fill="#E9724C"/>
<path d="M873.079 479.6C873.079 479.6 857.949 462.6 823.559 451.97" stroke="black" stroke-width="1.16" stroke-linecap="round" stroke-linejoin="round"/>
<path d="M888.61 528.991C888.61 528.991 883.04 524.791 875.93 520.421C863.72 504.621 834.54 490.541 818.1 497.271C804.5 502.841 814.01 524.791 838.45 527.911C852.48 529.711 859.75 528.151 869.13 527.261C881.58 526.081 888.61 528.981 888.61 528.981V528.991Z" fill="#E9724C"/>
<path d="M898.369 537.58C898.369 537.58 879.579 516.47 836.879 503.27" stroke="black" stroke-width="1.16" stroke-linecap="round" stroke-linejoin="round"/>
<path d="M923.1 523.971C923.1 523.971 936.46 521.651 949.3 537.531C960.08 550.861 964.32 574.551 981.69 569.921C999.9 565.071 991.44 524.371 966.13 517.841C959.33 516.091 945.26 515.751 939.09 519.391C930.83 518.211 923.09 523.971 923.09 523.971H923.1Z" fill="#E9724C"/>
<path d="M902.832 551.12C902.832 551.12 913.142 519.39 938.552 519.38C968.492 519.38 975.932 549.77 975.932 549.77" stroke="black" stroke-width="1.16" stroke-linecap="round" stroke-linejoin="round"/>
<path d="M877.661 569.9C877.661 569.9 863.831 573.46 858.591 588.92C830.581 609.57 838.541 654.83 861.381 653.62C886.401 652.29 882.281 618.64 875.401 597.96C867.931 575.52 877.661 569.91 877.661 569.91V569.9Z" fill="#E9724C"/>
<path d="M910.24 577.17C910.24 577.17 879.39 554.76 861.61 583.07C847.36 605.75 858.43 642.04 858.43 642.04" stroke="black" stroke-width="1.16" stroke-linecap="round" stroke-linejoin="round"/>
<path d="M901.548 650.38C901.548 650.38 890.898 652.32 882.128 670.78C848.468 699.89 860.878 748.87 885.018 750.19C897.878 750.89 903.858 738.17 900.948 720.61C898.728 707.26 892.188 692.68 891.558 683.23C890.648 669.62 892.868 663.81 897.458 659.32C904.478 652.44 901.558 650.37 901.558 650.37L901.548 650.38Z" fill="#E9724C"/>
<path d="M924.563 651.511C924.563 651.511 902.153 638.611 886.153 663.991C867.643 693.351 884.013 738.621 884.013 738.621" stroke="black" stroke-width="1.16" stroke-linecap="round" stroke-linejoin="round"/>
<path d="M929.701 620.12C929.701 620.12 926.121 623.08 932.021 627.34C935.981 630.2 940.911 635.05 943.181 649.66C945.181 662.51 948.711 687.04 967.131 684.41C983.381 682.09 987.271 652.88 975.301 637.28C963.321 621.67 940.271 622.26 940.271 622.26C940.271 622.26 936.101 619.25 929.701 620.12Z" fill="#E9724C"/>
<path d="M921.738 632.51C921.738 632.51 923.888 619.889 931.478 619.859C943.318 619.809 961.428 635.33 965.588 668.35" stroke="black" stroke-width="1.16" stroke-linecap="round" stroke-linejoin="round"/>
<path d="M436.539 862.85L413.309 968.03" stroke="black" stroke-width="2" stroke-linecap="round" stroke-linejoin="round"/>
<path d="M546.402 862.85L569.632 968.03" stroke="black" stroke-width="2" stroke-linecap="round" stroke-linejoin="round"/>
<path d="M423.77 900.63H559.17" stroke="black" stroke-width="2" stroke-linecap="round" stroke-linejoin="round"/>
<path d="M569.862 850.29H413.082V862.85H569.862V850.29Z" fill="white"/>
<path d="M557.353 845.1H475.973V850.29H557.353V845.1Z" fill="#C5283D"/>
<path d="M465.299 850.29H447.169L443.539 820.24H468.919L465.299 850.29Z" fill="#C5283D"/>
<path d="M444.45 820.24C444.45 820.24 438.06 809.38 423.77 814.61C423.77 814.61 432.15 802.16 447.52 812.23C447.52 812.23 446.7 800.66 436.53 794.83C436.53 794.83 454.78 796.64 457.68 815.7C457.68 815.7 458.59 799.82 468.11 797.01C468.11 797.01 462.58 801.82 463.13 814.79C463.13 814.79 464.73 811.27 468.92 813.18C479.09 810.59 470.18 838.56 470.18 838.56C470.18 838.56 468.92 825.22 465.48 820.23H444.44L444.45 820.24Z" fill="white"/>
<path d="M796.74 393.09C782.86 393.09 771.61 404.34 771.61 418.22C771.61 404.34 760.36 393.09 746.48 393.09C760.36 393.09 771.61 381.84 771.61 367.96C771.61 381.84 782.86 393.09 796.74 393.09Z" fill="black"/>
<path d="M283.73 306.53C263.3 306.53 246.73 323.09 246.73 343.53C246.73 323.09 230.17 306.53 209.73 306.53C230.17 306.53 246.73 289.96 246.73 269.52C246.73 289.96 263.3 306.53 283.73 306.53Z" fill="white"/>
<path d="M537.011 772.36C528.361 772.36 521.351 779.37 521.351 788.02C521.351 779.37 514.341 772.36 505.691 772.36C514.341 772.36 521.351 765.35 521.351 756.7C521.351 765.35 528.361 772.36 537.011 772.36Z" fill="white"/>
<path d="M301.809 569.16H42.4492V911.55H301.809V569.16Z" fill="black"/>
<path d="M292.422 578.55H51.832V902.17H292.422V578.55Z" fill="white"/>
<path opacity="0.5" d="M267.971 611.45H76.3008V869.26H267.971V611.45Z" fill="#FFCCB3"/>
<path d="M214.827 679.23C213.647 677.47 104.797 717.33 107.677 724.77C107.677 724.77 147.717 831.81 154.757 833.57C161.797 835.33 257.127 791.5 259.477 790.32C261.817 789.15 215.987 680.98 214.817 679.22L214.827 679.23ZM249.737 785.01C247.897 785.93 173.287 820.24 167.787 818.86C162.277 817.48 130.937 733.7 130.937 733.7C128.677 727.88 213.867 696.68 214.787 698.06C215.707 699.44 251.577 784.09 249.737 785.01Z" fill="#E9724C"/>
<path d="M168.281 744.52C151.741 762.39 124.991 770.53 101.641 763.66C93.5708 761.29 84.5908 757.01 76.3008 751.85V646.68C84.5308 642.6 93.8908 640.43 103.081 640C120.541 639.2 137.741 643.85 154.541 648.67C163.091 651.13 172.101 653.94 177.951 660.63C181.831 665.05 183.921 670.76 185.291 676.48C190.951 700.15 184.811 726.65 168.271 744.51L168.281 744.52Z" fill="#C5283D"/>
<path d="M255.629 869.27H237.599C233.769 845.84 221.779 827.35 218.979 823.65C211.169 813.36 199.769 805.83 187.239 802.71C174.709 799.6 161.109 800.88 149.379 806.32C143.369 809.1 137.679 813.12 134.419 818.89C131.889 823.35 130.999 828.54 130.379 833.64C128.939 845.45 128.789 857.42 129.899 869.28H111.469C110.919 861.61 113.089 849.21 115.149 842.66C120.039 827.03 130.209 812.96 144.009 804.02C165.509 790.12 194.919 789.42 216.899 802.56C239.809 816.24 252.729 842.62 255.639 869.28L255.629 869.27Z" fill="#255F85"/>
<path d="M229.932 794.03C216.582 800.03 199.082 807.72 186.012 812.96L189.552 821.32C204.352 815.13 221.242 807.67 234.712 801.62C232.852 798.74 231.162 796.04 229.932 794.03Z" fill="#F675A8"/>
<path d="M157.468 635.86C157.468 635.86 148.958 643.46 155.698 653.83C161.418 662.63 179.678 654.49 186.718 658.45C193.758 662.41 200.958 673.5 213.558 669.98C228.078 665.93 221.258 637.11 206.518 629.85C191.778 622.59 170.908 623.4 157.468 635.86Z" fill="#FFC857"/>
<path d="M993.527 968.03H1010.77" stroke="black" stroke-width="1.42" stroke-linecap="round" stroke-linejoin="round"/>
<path d="M401.43 968.03H982.28" stroke="black" stroke-width="2" stroke-linecap="round" stroke-linejoin="round"/>
<path d="M333.998 912.48H2.84766" stroke="black" stroke-width="2" stroke-linecap="round" stroke-linejoin="round"/>
</g>
<defs>
<clipPath id="clip0_2134_225">
<rect width="1080" height="1080" fill="white"/>
</clipPath>
</defs>
</svg>
